<?xml version="1.0" encoding="UTF-8"?>
<svg id="Layer_4" xmlns="http://www.w3.org/2000/svg" width="24" height="24" version="1.1" viewBox="0 0 24 24">
  <!-- Generator: Adobe Illustrator 29.7.1, SVG Export Plug-In . SVG Version: 2.1.1 Build 8)  -->
  <defs>
    <style>
      .st0 {
        fill: none;
        stroke: #000;
        stroke-miterlimit: 10;
        stroke-width: .8px;
      }
    </style>
  </defs>
  <path class="st0" d="M14,16c.4.2,1.9-1.3,2-3.1,0-1.3-.7-2.4-1.4-3.5-.8-1.3-1.2-1.2-1.6-2.2-.8-1.7-.2-2.9-.7-3.1-.8-.4-4.1,2.8-4.2,6.6,0,2.7,1.5,5,1.6,4.9,0,0-.2-.6,0-1.3,0-.3.2-.4.6-.8.7-.8,1-1.3,1.1-1.5.4-.9,0-1.5.4-1.7.4-.2,1.7.9,2.1,2.4.5,1.8-.3,3.2,0,3.3Z"/>
  <path class="st0" d="M18,20.5c0,.3-.4.5-.7.5s-.1,0-.2,0l-5.1-1.7-2.3-.8-3.1-1c-.4,0-.6-.5-.5-.9,0-.3.4-.5.7-.5s.1,0,.2,0l5,1.7,2.2.8,3.2,1.1c.4.1.6.5.5.9Z"/>
  <path class="st0" d="M9.7,18.5l2.3.8-5,1.6c0,0-.1,0-.2,0-.3,0-.6-.2-.7-.5-.1-.4.1-.8.5-.9l3.1-1Z"/>
  <path class="st0" d="M17.4,17.4l-3.2,1.1-2.2-.8,5.1-1.7c0,0,.1,0,.2,0,.3,0,.6.2.7.5,0,.4-.1.8-.5.9Z"/>
</svg>