<?xml version="1.0" encoding="UTF-8"?>
<svg id="Layer_2" data-name="Layer 2" xmlns="http://www.w3.org/2000/svg" viewBox="0 0 13.62 17.86">
  <defs>
    <style>
      .cls-1 {
        fill: none;
        stroke: #000;
        stroke-miterlimit: 10;
        stroke-width: .5px;
      }
    </style>
  </defs>
  <g id="Cone">
    <path class="cls-1" d="M12.2,13.92c.08.15.12.3.14.38.03.12-.07.37-.13.49-.2.39-.85,1.03-1.23,1.26-.58.36-1.99.64-2.68.59-.41-.02-.94-.19-1.51-.43-.9-.36-1.86-.88-2.43-1.21-.43-.25-1.05-.74-1.61-1.23"/>
    <path class="cls-1" d="M2.75,13.77c.65-.19,1.36-.46,1.78-.62.59-.23,1.45-.66,2.27-1.12.73-.41,1.44-.85,1.88-1.19.44-.33,1.04-.96,1.58-1.58.42-.47.81-.93,1.07-1.27.22-.28.57-.89.72-1.21.05-.11.13-.37.1-.5-.03-.12-.25-.3-.35-.38-.08-.07-.2-.15-.33-.22h0c-.32-.2-.74-.41-.96-.57-.25-.17-.58-.41-.93-.68"/>
    <path class="cls-1" d="M6.8,1.79c-.46.55-.94,1.14-1.28,1.47-.45.44-1.43,1.18-1.43,1.18-.08-.1-.19-.32-.2-.33-.05-.13-.15-.4-.14-.55.01-.35.21-1.04.38-1.35.21-.38.7-1.1,1.02-1.39.1-.09.32-.31.46-.3.12,0,.3.19.39.27.01,0,.01.01.02.02.18.17.6.77.6.77.05.07.11.14.18.21Z"/>
    <path class="cls-1" d="M4.09,4.44c.06.08.12.18.19.27.02.02.76.97,1.12,1.33.33.33.86.75,1.41,1.16.66.49,1.36.95,1.82,1.24.38.23,1.03.55,1.63.82.35.16.69.3.93.4.23.1.61.22.96.34.27.09.47.17.64.24.12.04.44.14.47.26.05.19-.01.42-.06.55-.05.14-.15.31-.27.48-.31.44-.76.94-1.03,1.22s-.69.64-1.15,1h-.01c-.61.49-1.28.97-1.71,1.27-.51.34-1.59.91-2.24,1.19-.05.02-.1.04-.14.06-.5.19-1.57.4-2.1.37-.56-.04-1.64-.51-2.13-.8-.36-.22-.95-.85-1.18-1.2-.04-.07-.09-.23-.06-.31.03-.07.19-.21.41-.39"/>
    <path class="cls-1" d="M2.75,13.77c-.39.1-.76.18-1.04.18-.03,0-.11,0-.12-.01-.16-.02-.37-.08-.48-.14-.13-.08-.37-.27-.45-.4-.18-.3-.35-.99-.4-1.34-.02-.1-.01-.46.1-.53.12-.08.26-.06.38.02.28.4.63.87.87,1.13.19.2,1,.96,1.14,1.09Z"/>
    <path class="cls-1" d="M9.82,3.49c.02.14-.02.41-.08.6,0,.01-.03.11-.05.14-.03.06-.07.13-.11.2-.01,0-.03-.02-.04-.03-.55-.42-1.13-.9-1.47-1.22-.29-.27-.82-.87-1.27-1.39.06-.07.11-.14.16-.21.24-.28.45-.54.63-.73.08-.09.26-.26.38-.27.11-.01.31.15.4.22.29.23.75.84.94,1.16.21.34.46,1.13.51,1.53Z"/>
    <path class="cls-1" d="M.74,11.55c-.11-.16-.21-.37-.27-.48-.1-.2-.21-.42-.12-.58.04-.08.17-.19.27-.23.2-.09.54-.18.86-.26.26-.06.5-.11.67-.17.32-.11.75-.28,1.21-.48.69-.31,1.43-.69,1.86-.97.41-.27,1.02-.72,1.59-1.18.56-.45,1.09-.91,1.42-1.25.35-.35,1.03-1.01,1.35-1.52"/>
    <path class="cls-1" d="M12.93,11.53c.18-.03.33-.03.36.02.06.08.08.28.08.37,0,.32-.24.94-.37,1.23-.07.16-.27.43-.4.55-.08.07-.25.17-.4.22-.05.02-.1.03-.14.04-.35.04-.81-.06-1.31-.21h-.01c-.75-.21-1.55-.55-2.04-.75-.49-.19-1.2-.56-1.9-.97-.74-.43-1.48-.89-1.93-1.24-.41-.31-.98-.87-1.51-1.44-.46-.5-.89-1.01-1.16-1.38-.21-.29-.54-.95-.7-1.28-.04-.1-.13-.32-.1-.43.03-.12.27-.28.38-.35.09-.07.22-.15.37-.23.28-.15.61-.31.79-.43.3-.19.72-.49,1.15-.81"/>
    <path class="cls-1" d="M1.48,10c-.17-.11-.35-.24-.42-.34-.1-.15-.32-.38-.36-.67-.07-.46-.1-1.42.04-1.86.03-.11.13-.36.24-.4.21-.13.52.02.61.14"/>
    <path class="cls-1" d="M12.15,10s.26-.12.42-.35c.11-.15.32-.41.37-.67.08-.45.1-1.42-.04-1.86-.04-.11-.09-.27-.24-.4-.11-.09-.54-.08-.63.1"/>
    <path class="cls-1" d="M3.89,4.11c-.24-.36-.52-.76-.7-.94-.08-.07-.26-.34-.38-.32-.14.02-.26.37-.29.43-.2.43-.45,1.24-.51,1.72-.01.09-.02.28,0,.37.02.07.07.19.13.31"/>
    <path class="cls-1" d="M9.74,4.09c.24-.35.51-.74.69-.92.08-.07.25-.34.38-.32.14.02.26.37.29.43.2.43.45,1.24.51,1.72.01.09.02.28,0,.37-.02.07-.07.18-.13.3h0"/>
    <path class="cls-1" d="M9.01,16.61c.16.1.33.2.44.3.23.21-.77.44-1.08.52-.42.12-1.31.19-1.75.18-.31,0-1.09-.11-1.37-.18-.3-.07-1.58-.34-1.19-.52.1-.04.36-.15.62-.27"/>
    <path class="cls-1" d="M7.59.85c-.18.19-.39.45-.63.73h-.34s-.42-.6-.6-.77l.71-.54s.07-.03.1,0l.76.58Z"/>
  </g>
</svg>