<svg width="200" height="200" viewBox="0 0 200 200" fill="none" xmlns="http://www.w3.org/2000/svg">
<path fill-rule="evenodd" clip-rule="evenodd" d="M100 8.3335C49.375 8.3335 8.33337 49.3752 8.33337 100C8.33337 150.625 49.375 191.667 100 191.667C150.625 191.667 191.667 150.625 191.667 100C191.667 49.3752 150.625 8.3335 100 8.3335ZM139.733 84.5002C140.465 83.6639 141.022 82.6897 141.372 81.6349C141.721 80.5801 141.856 79.4661 141.769 78.3584C141.682 77.2506 141.374 76.1715 140.863 75.1846C140.353 74.1976 139.65 73.3227 138.796 72.6113C137.943 71.9 136.955 71.3665 135.893 71.0424C134.83 70.7182 133.713 70.6099 132.607 70.7237C131.502 70.8376 130.431 71.1714 129.456 71.7054C128.482 72.2395 127.624 72.963 126.933 73.8335L91.1 116.825L72.5584 98.2752C70.9867 96.7572 68.8817 95.9172 66.6967 95.9362C64.5117 95.9552 62.4216 96.8316 60.8766 98.3767C59.3315 99.9217 58.4551 102.012 58.4361 104.197C58.4171 106.382 59.2571 108.487 60.775 110.059L85.775 135.059C86.5939 135.877 87.5742 136.516 88.6535 136.934C89.7328 137.352 90.8875 137.541 92.044 137.489C93.2004 137.436 94.3332 137.143 95.3701 136.629C96.4071 136.114 97.3255 135.389 98.0667 134.5L139.733 84.5002Z" fill="#D1D28D"/>
</svg>
