<svg width="30" height="40" viewBox="0 0 30 40" fill="none" xmlns="http://www.w3.org/2000/svg">
<g clip-path="url(#clip0_233_415)">
<mask id="mask0_233_415" style="mask-type:luminance" maskUnits="userSpaceOnUse" x="0" y="0" width="15" height="40">
<path d="M15 0H0V40H15V0Z" fill="white"/>
</mask>
<g mask="url(#mask0_233_415)">
<path d="M14.9477 36.7015C14.4547 37.0023 13.6682 37.4135 12.6358 37.6725C10.117 38.3035 8.0242 37.5486 7.19391 37.2355C5.83647 36.7249 5.02688 36.0792 3.91902 35.1953C3.6037 34.9437 2.9755 34.4232 2.5701 33.5443C2.39114 33.1564 2.16104 32.6383 2.37774 32.2332C2.55062 31.9079 2.92315 31.822 3.63048 31.6501C4.35364 31.4746 5.06706 31.2573 5.79752 31.1161C6.68624 30.9443 7.32174 30.7258 8.59153 30.29C9.92096 29.8334 10.8292 29.3816 12.5409 28.542C13.2908 28.1737 14.1808 27.7219 15.1742 27.1818" stroke="white" stroke-miterlimit="10"/>
<path d="M14.9477 36.7016C14.311 36.4757 13.5027 36.1614 12.5884 35.7306C12.1586 35.528 10.8876 34.9142 9.31346 33.8855C7.1513 32.4714 5.72812 31.1248 4.64217 30.0973C4.52408 29.9856 3.46613 28.9802 2.57131 27.9122C2.13791 27.3942 1.78363 26.9118 1.75198 26.8676C1.62902 26.6994 1.46954 26.4637 1.14935 25.9936C0.595418 25.1785 0.523589 25.0508 0.450543 24.8519C0.334887 24.5352 0.204621 24.1927 0.305668 23.8809C0.501675 23.2782 1.38918 23.0842 1.89442 22.9578C2.70523 22.7565 3.74857 22.3293 5.84378 21.5007C7.23895 20.9483 8.30299 20.3799 9.0225 19.9957C9.69939 19.6336 10.229 19.3169 11.2857 18.6847C12.8233 17.7652 13.3432 17.3945 13.6938 17.1306C14.2867 16.6862 14.7444 16.2848 15.0427 16.0135" stroke="white" stroke-miterlimit="10"/>
<path d="M3.51721 31.6993C3.15563 31.7017 2.28273 31.6538 1.60705 31.0437C1.25765 30.7283 1.03607 30.3293 0.932593 30.1452C0.719542 29.7622 0.618495 29.4381 0.523535 29.1251C0.401792 28.7273 0.44075 28.7261 0.258135 27.8619C0.0779544 27.01 0.00125611 26.8234 0.11326 26.5263C0.148566 26.433 0.258135 26.1581 0.546666 25.9923C0.76337 25.8683 0.975203 25.8659 1.07625 25.8708" stroke="white" stroke-miterlimit="10"/>
<path d="M2.71369 22.6669C2.35576 22.3993 1.84931 21.9377 1.47799 21.2257C1.41834 21.1103 1.16754 20.6181 1.04458 19.9306C0.969103 19.5108 0.966668 19.161 0.964233 18.7326C0.964233 18.6073 0.97519 18.3078 0.997104 17.7161C1.02145 17.0913 1.02876 16.9219 1.04458 16.6936C1.09937 15.9006 1.15659 15.7349 1.22111 15.601C1.30755 15.4231 1.44512 15.1383 1.7507 15.018C2.11349 14.8768 2.4702 15.0634 2.58586 15.1235C2.98639 15.3334 3.17996 15.6919 3.27614 15.8687C3.27614 15.8687 3.96643 17.1318 5.00246 18.6122C5.22525 18.9314 5.42735 19.1732 5.8291 19.6569C6.73 20.7384 7.6796 21.7352 8.71077 22.716C10.364 24.2873 11.59 25.4473 13.5355 26.5521C14.132 26.8909 14.6433 27.1376 14.9927 27.2972" stroke="white" stroke-miterlimit="10"/>
<path d="M14.8831 16.1264C13.3662 14.9173 12.1926 13.8235 11.3514 12.9863C10.4979 12.1369 10.0852 11.6508 9.29632 10.7203C8.31872 9.56759 8.19089 9.30121 8.10811 9.06921C7.72583 7.99877 8.06428 7.00568 8.42951 5.79899C8.72048 4.83658 9.15875 4.14301 10.0353 2.75587C10.0816 2.68222 10.5515 1.95182 11.3842 1.26684C11.7799 0.94154 11.9917 0.844563 12.2194 0.845791C12.6784 0.849474 12.9925 1.2963 13.3747 1.81679C13.729 2.29922 14.2732 3.02962 15.011 3.98466" stroke="white" stroke-miterlimit="10"/>
<path d="M3.99805 17.0852C3.73508 16.6543 3.38933 16.0786 2.98636 15.385C2.71487 14.9173 2.55052 14.6251 2.61748 14.2642C2.68565 13.8898 2.9681 13.6149 3.09958 13.4872C3.25298 13.3374 3.43681 13.2319 3.79839 13.0256C4.3158 12.731 4.57511 12.5825 4.73703 12.4916C5.10835 12.2829 5.39201 12.0951 5.96055 11.7195C7.00146 11.0308 7.81227 10.4306 8.01193 10.282C10.1972 8.65797 11.9175 7.05109 12.2182 6.76875C13.0144 6.02117 13.9591 5.08209 14.9793 3.95151" stroke="white" stroke-miterlimit="10"/>
<path d="M4.37544 12.6868C4.22083 12.5285 4.00534 12.2609 3.91769 11.8852C3.8069 11.4077 3.96517 11.0284 4.11004 10.6221C4.46675 9.62405 5.14121 7.36166 5.21791 7.10142C5.25808 6.96639 5.35061 6.646 5.62696 6.49378C5.88506 6.35138 6.16385 6.4324 6.20525 6.44468C6.47065 6.5257 6.61674 6.75034 6.68735 6.85714C6.96005 7.27696 7.59799 8.28479 8.42098 9.64983" stroke="white" stroke-miterlimit="10"/>
<path d="M15.1084 39.9386C14.2112 39.9435 12.9755 39.8785 11.545 39.5667C11.1798 39.4869 8.78384 38.9652 8.8155 38.4987C8.82767 38.317 9.20994 38.0985 10.7585 37.9156" stroke="white" stroke-miterlimit="10"/>
<path d="M14.6019 36.8624L15.067 36.6598" stroke="white" stroke-miterlimit="10"/>
<path d="M13.2299 1.54918C13.4733 1.23738 13.9287 0.741445 14.6506 0.391591C15.0329 0.20623 15.3884 0.11048 15.6696 0.0601501" stroke="white" stroke-miterlimit="10"/>
</g>
<mask id="mask1_233_415" style="mask-type:luminance" maskUnits="userSpaceOnUse" x="15" y="0" width="15" height="40">
<path d="M30 0H15V40H30V0Z" fill="white"/>
</mask>
<g mask="url(#mask1_233_415)">
<path d="M15.0536 36.7015C15.5467 37.0023 16.3331 37.4135 17.3655 37.6725C19.8844 38.3035 21.9771 37.5486 22.8074 37.2355C24.1649 36.7249 24.9745 36.0792 26.0823 35.1953C26.3976 34.9437 27.0258 34.4232 27.4312 33.5443C27.6102 33.1564 27.8403 32.6383 27.6236 32.2332C27.4507 31.9079 27.0782 31.822 26.3709 31.6501C25.6477 31.4746 24.9343 31.2573 24.2038 31.1161C23.3151 30.9443 22.6796 30.7258 21.4098 30.29C20.0804 29.8334 19.1722 29.3816 17.4605 28.542C16.7105 28.1737 15.8206 27.7219 14.8271 27.1818" stroke="white" stroke-miterlimit="10"/>
<path d="M15.0536 36.7016C15.6903 36.4757 16.4987 36.1614 17.413 35.7306C17.8427 35.528 19.1137 34.9142 20.6879 33.8855C22.85 32.4714 24.2732 31.1248 25.3592 30.0973C25.4772 29.9856 26.5352 28.9802 27.43 27.9122C27.8634 27.3942 28.2177 26.9118 28.2493 26.8676C28.3723 26.6994 28.5318 26.4637 28.852 25.9936C29.4059 25.1785 29.4777 25.0508 29.5508 24.8519C29.6664 24.5352 29.7967 24.1927 29.6957 23.8809C29.4996 23.2782 28.6121 23.0842 28.1069 22.9578C27.2961 22.7565 26.2528 22.3293 24.1575 21.5007C22.7624 20.9483 21.6983 20.3799 20.9788 19.9957C20.3019 19.6336 19.7724 19.3169 18.7156 18.6847C17.178 17.7652 16.6582 17.3945 16.3075 17.1306C15.7146 16.6862 15.2569 16.2848 14.9586 16.0135" stroke="white" stroke-miterlimit="10"/>
<path d="M26.4841 31.6993C26.8457 31.7017 27.7186 31.6538 28.3943 31.0437C28.7437 30.7283 28.9653 30.3293 29.0687 30.1452C29.2818 29.7622 29.3828 29.4381 29.4778 29.1251C29.5995 28.7273 29.5606 28.7261 29.7432 27.8619C29.9234 27.01 30.0001 26.8234 29.8881 26.5263C29.8528 26.433 29.7432 26.1581 29.4547 25.9923C29.238 25.8683 29.0261 25.8659 28.9251 25.8708" stroke="white" stroke-miterlimit="10"/>
<path d="M27.2864 22.6669C27.6443 22.3993 28.1507 21.9377 28.5221 21.2257C28.5817 21.1103 28.8325 20.6181 28.9555 19.9306C29.0309 19.5108 29.0334 19.161 29.0358 18.7326C29.0358 18.6073 29.0249 18.3078 29.0029 17.7161C28.9786 17.0913 28.9713 16.9219 28.9555 16.6936C28.9007 15.9006 28.8435 15.7349 28.7789 15.601C28.6925 15.4231 28.5549 15.1383 28.2494 15.018C27.8866 14.8768 27.5298 15.0634 27.4142 15.1235C27.0137 15.3334 26.8201 15.6919 26.7239 15.8687C26.7239 15.8687 26.0336 17.1318 24.9976 18.6122C24.7748 18.9314 24.5727 19.1732 24.1709 19.6569C23.27 20.7384 22.3204 21.7352 21.2893 22.716C19.636 24.2873 18.4101 25.4473 16.4646 26.5521C15.8681 26.8909 15.3567 27.1376 15.0073 27.2972" stroke="white" stroke-miterlimit="10"/>
<path d="M15.117 16.1264C16.6339 14.9173 17.8075 13.8235 18.6487 12.9863C19.5022 12.1369 19.9149 11.6508 20.7038 10.7203C21.6814 9.56759 21.8092 9.30121 21.892 9.06921C22.2743 7.99877 21.9358 7.00568 21.5706 5.79899C21.2796 4.83658 20.8413 4.14301 19.9648 2.75587C19.9185 2.68222 19.4486 1.95182 18.6159 1.26684C18.2202 0.94154 18.0084 0.844563 17.7807 0.845791C17.3217 0.849474 17.0076 1.2963 16.6254 1.81679C16.2711 2.29922 15.7269 3.02962 14.9891 3.98466" stroke="white" stroke-miterlimit="10"/>
<path d="M26.002 17.0852C26.265 16.6543 26.6107 16.0786 27.0137 15.385C27.2852 14.9173 27.4495 14.6251 27.3826 14.2642C27.3144 13.8898 27.032 13.6149 26.9005 13.4872C26.7471 13.3374 26.5632 13.2319 26.2017 13.0256C25.6843 12.731 25.4249 12.5825 25.263 12.4916C24.8917 12.2829 24.608 12.0951 24.0395 11.7195C22.9986 11.0308 22.1878 10.4306 21.9881 10.282C19.8028 8.65797 18.0826 7.05109 17.7819 6.76875C16.9857 6.02117 16.041 5.08209 15.0208 3.95151" stroke="white" stroke-miterlimit="10"/>
<path d="M25.6246 12.6868C25.7792 12.5285 25.9947 12.2609 26.0824 11.8852C26.1932 11.4077 26.0349 11.0284 25.89 10.6221C25.5333 9.62405 24.8589 7.36166 24.7822 7.10142C24.742 6.96639 24.6495 6.646 24.3731 6.49378C24.115 6.35138 23.8362 6.4324 23.7948 6.44468C23.5294 6.5257 23.3833 6.75034 23.3127 6.85714C23.04 7.27696 22.4021 8.28479 21.5791 9.64983" stroke="white" stroke-miterlimit="10"/>
<path d="M14.8929 39.9386C15.7902 39.9435 17.0259 39.8785 18.4564 39.5667C18.8216 39.4869 21.2175 38.9652 21.1859 38.4987C21.1737 38.317 20.7914 38.0985 19.2428 37.9156" stroke="white" stroke-miterlimit="10"/>
<path d="M15.3982 36.8624L14.9331 36.6598" stroke="white" stroke-miterlimit="10"/>
<path d="M16.7714 1.54918C16.5279 1.23738 16.0726 0.741445 15.3507 0.391591C14.9684 0.20623 14.6129 0.11048 14.3317 0.0601501" stroke="white" stroke-miterlimit="10"/>
</g>
</g>
<defs>
<clipPath id="clip0_233_415">
<rect width="30" height="40" fill="white"/>
</clipPath>
</defs>
</svg>
