<?xml version="1.0" encoding="UTF-8"?>
<svg id="Layer_2" data-name="Layer 2" xmlns="http://www.w3.org/2000/svg" xmlns:xlink="http://www.w3.org/1999/xlink" viewBox="0 0 248.42 327.84">
  <defs>
    <style>
      .cls-1, .cls-2 {
        fill: none;
      }

      .cls-3 {
        clip-path: url(#clippath-1);
      }

      .cls-2 {
        stroke: #000;
        stroke-miterlimit: 10;
        stroke-width: 3px;
      }

      .cls-4 {
        clip-path: url(#clippath);
      }
    </style>
    <clipPath id="clippath">
      <rect class="cls-1" width="124.21" height="327.84"/>
    </clipPath>
    <clipPath id="clippath-1">
      <rect class="cls-1" x="124.21" y="0" width="124.21" height="327.84"/>
    </clipPath>
  </defs>
  <g id="Outline">
    <g>
      <g id="_Mirror_Repeat_" data-name="&amp;lt;Mirror Repeat&amp;gt;">
        <g class="cls-4">
          <path class="cls-2" d="M123.78,299.96c-4.05,2.45-10.51,5.8-18.99,7.91-20.69,5.14-37.88-1.01-44.7-3.56-11.15-4.16-17.8-9.42-26.9-16.62-2.59-2.05-7.75-6.29-11.08-13.45-1.47-3.16-3.36-7.38-1.58-10.68,1.42-2.65,4.48-3.35,10.29-4.75,5.94-1.43,11.8-3.2,17.8-4.35,7.3-1.4,12.52-3.18,22.95-6.73,10.92-3.72,18.38-7.4,32.44-14.24,6.16-3,13.47-6.68,21.63-11.08"/>
          <path class="cls-2" d="M123.78,299.96c-5.23-1.84-11.87-4.4-19.38-7.91-3.53-1.65-13.97-6.65-26.9-15.03-17.76-11.52-29.45-22.49-38.37-30.86-.97-.91-9.66-9.1-17.01-17.8-3.56-4.22-6.47-8.15-6.73-8.51-1.01-1.37-2.32-3.29-4.95-7.12-4.55-6.64-5.14-7.68-5.74-9.3-.95-2.58-2.02-5.37-1.19-7.91,1.61-4.91,8.9-6.49,13.05-7.52,6.66-1.64,15.23-5.12,32.44-11.87,11.46-4.5,20.2-9.13,26.11-12.26,5.56-2.95,9.91-5.53,18.59-10.68,12.63-7.49,16.9-10.51,19.78-12.66,4.87-3.62,8.63-6.89,11.08-9.1"/>
          <path class="cls-2" d="M29.89,259.21c-2.97.02-10.14-.37-15.69-5.34-2.87-2.57-4.69-5.82-5.54-7.32-1.75-3.12-2.58-5.76-3.36-8.31-1-3.24-.68-3.25-2.18-10.29-1.48-6.94-2.11-8.46-1.19-10.88.29-.76,1.19-3,3.56-4.35,1.78-1.01,3.52-1.03,4.35-.99"/>
          <path class="cls-2" d="M23.29,185.63c-2.94-2.18-7.1-5.94-10.15-11.74-.49-.94-2.55-4.95-3.56-10.55-.62-3.42-.64-6.27-.66-9.76,0-1.02.09-3.46.27-8.28.2-5.09.26-6.47.39-8.33.45-6.46.92-7.81,1.45-8.9.71-1.45,1.84-3.77,4.35-4.75,2.98-1.15,5.91.37,6.86.86,3.29,1.71,4.88,4.63,5.67,6.07,0,0,5.67,10.29,14.18,22.35,1.83,2.6,3.49,4.57,6.79,8.51,7.4,8.81,15.2,16.93,23.67,24.92,13.58,12.8,23.65,22.25,39.63,31.25,4.9,2.76,9.1,4.77,11.97,6.07"/>
          <path class="cls-2" d="M123.25,132.36c-12.46-9.85-22.1-18.76-29.01-25.58-7.01-6.92-10.4-10.88-16.88-18.46-8.03-9.39-9.08-11.56-9.76-13.45-3.14-8.72-.36-16.81,2.64-26.64,2.39-7.84,5.99-13.49,13.19-24.79.38-.6,4.24-6.55,11.08-12.13,3.25-2.65,4.99-3.44,6.86-3.43,3.77.03,6.35,3.67,9.49,7.91,2.91,3.93,7.38,9.88,13.44,17.66"/>
          <path class="cls-2" d="M33.84,140.17c-2.16-3.51-5-8.2-8.31-13.85-2.23-3.81-3.58-6.19-3.03-9.13.56-3.05,2.88-5.29,3.96-6.33,1.26-1.22,2.77-2.08,5.74-3.76,4.25-2.4,6.38-3.61,7.71-4.35,3.05-1.7,5.38-3.23,10.05-6.29,8.55-5.61,15.21-10.5,16.85-11.71,17.95-13.23,32.08-26.32,34.55-28.62,6.54-6.09,14.3-13.74,22.68-22.95"/>
          <path class="cls-2" d="M36.94,104.33c-1.27-1.29-3.04-3.47-3.76-6.53-.91-3.89.39-6.98,1.58-10.29,2.93-8.13,8.47-26.56,9.1-28.68.33-1.1,1.09-3.71,3.36-4.95,2.12-1.16,4.41-.5,4.75-.4,2.18.66,3.38,2.49,3.96,3.36,2.24,3.42,7.48,11.63,14.24,22.75"/>
          <path class="cls-2" d="M125.1,326.33c-7.37.04-17.52-.49-29.27-3.03-3-.65-22.68-4.9-22.42-8.7.1-1.48,3.24-3.26,15.96-4.75"/>
          <path class="cls-2" d="M120.94,301.28l3.82-1.65"/>
          <path class="cls-2" d="M109.67,13.61c2-2.54,5.74-6.58,11.67-9.43,3.14-1.51,6.06-2.29,8.37-2.7"/>
        </g>
      </g>
      <g id="_Mirror_Repeat_-2" data-name="&amp;lt;Mirror Repeat&amp;gt;">
        <g class="cls-3">
          <path class="cls-2" d="M124.65,299.96c4.05,2.45,10.51,5.8,18.99,7.91,20.69,5.14,37.88-1.01,44.7-3.56,11.15-4.16,17.8-9.42,26.9-16.62,2.59-2.05,7.75-6.29,11.08-13.45,1.47-3.16,3.36-7.38,1.58-10.68-1.42-2.65-4.48-3.35-10.29-4.75-5.94-1.43-11.8-3.2-17.8-4.35-7.3-1.4-12.52-3.18-22.95-6.73-10.92-3.72-18.38-7.4-32.44-14.24-6.16-3-13.47-6.68-21.63-11.08"/>
          <path class="cls-2" d="M124.65,299.96c5.23-1.84,11.87-4.4,19.38-7.91,3.53-1.65,13.97-6.65,26.9-15.03,17.76-11.52,29.45-22.49,38.37-30.86.97-.91,9.66-9.1,17.01-17.8,3.56-4.22,6.47-8.15,6.73-8.51,1.01-1.37,2.32-3.29,4.95-7.12,4.55-6.64,5.14-7.68,5.74-9.3.95-2.58,2.02-5.37,1.19-7.91-1.61-4.91-8.9-6.49-13.05-7.52-6.66-1.64-15.23-5.12-32.44-11.87-11.46-4.5-20.2-9.13-26.11-12.26-5.56-2.95-9.91-5.53-18.59-10.68-12.63-7.49-16.9-10.51-19.78-12.66-4.87-3.62-8.63-6.89-11.08-9.1"/>
          <path class="cls-2" d="M218.54,259.21c2.97.02,10.14-.37,15.69-5.34,2.87-2.57,4.69-5.82,5.54-7.32,1.75-3.12,2.58-5.76,3.36-8.31,1-3.24.68-3.25,2.18-10.29,1.48-6.94,2.11-8.46,1.19-10.88-.29-.76-1.19-3-3.56-4.35-1.78-1.01-3.52-1.03-4.35-.99"/>
          <path class="cls-2" d="M225.13,185.63c2.94-2.18,7.1-5.94,10.15-11.74.49-.94,2.55-4.95,3.56-10.55.62-3.42.64-6.27.66-9.76,0-1.02-.09-3.46-.27-8.28-.2-5.09-.26-6.47-.39-8.33-.45-6.46-.92-7.81-1.45-8.9-.71-1.45-1.84-3.77-4.35-4.75-2.98-1.15-5.91.37-6.86.86-3.29,1.71-4.88,4.63-5.67,6.07,0,0-5.67,10.29-14.18,22.35-1.83,2.6-3.49,4.57-6.79,8.51-7.4,8.81-15.2,16.93-23.67,24.92-13.58,12.8-23.65,22.25-39.63,31.25-4.9,2.76-9.1,4.77-11.97,6.07"/>
          <path class="cls-2" d="M125.17,132.36c12.46-9.85,22.1-18.76,29.01-25.58,7.01-6.92,10.4-10.88,16.88-18.46,8.03-9.39,9.08-11.56,9.76-13.45,3.14-8.72.36-16.81-2.64-26.64-2.39-7.84-5.99-13.49-13.19-24.79-.38-.6-4.24-6.55-11.08-12.13-3.25-2.65-4.99-3.44-6.86-3.43-3.77.03-6.35,3.67-9.49,7.91-2.91,3.93-7.38,9.88-13.44,17.66"/>
          <path class="cls-2" d="M214.58,140.17c2.16-3.51,5-8.2,8.31-13.85,2.23-3.81,3.58-6.19,3.03-9.13-.56-3.05-2.88-5.29-3.96-6.33-1.26-1.22-2.77-2.08-5.74-3.76-4.25-2.4-6.38-3.61-7.71-4.35-3.05-1.7-5.38-3.23-10.05-6.29-8.55-5.61-15.21-10.5-16.85-11.71-17.95-13.23-32.08-26.32-34.55-28.62-6.54-6.09-14.3-13.74-22.68-22.95"/>
          <path class="cls-2" d="M211.48,104.33c1.27-1.29,3.04-3.47,3.76-6.53.91-3.89-.39-6.98-1.58-10.29-2.93-8.13-8.47-26.56-9.1-28.68-.33-1.1-1.09-3.71-3.36-4.95-2.12-1.16-4.41-.5-4.75-.4-2.18.66-3.38,2.49-3.96,3.36-2.24,3.42-7.48,11.63-14.24,22.75"/>
          <path class="cls-2" d="M123.33,326.33c7.37.04,17.52-.49,29.27-3.03,3-.65,22.68-4.9,22.42-8.7-.1-1.48-3.24-3.26-15.96-4.75"/>
          <path class="cls-2" d="M127.48,301.28l-3.82-1.65"/>
          <path class="cls-2" d="M138.76,13.61c-2-2.54-5.74-6.58-11.67-9.43-3.14-1.51-6.06-2.29-8.37-2.7"/>
        </g>
      </g>
    </g>
  </g>
</svg>