<svg width="92" height="92" viewBox="0 0 92 92" fill="none" xmlns="http://www.w3.org/2000/svg">
<path d="M11.5 23.9583C11.5 17.0778 17.0778 11.5 23.9583 11.5H68.0417C74.9221 11.5 80.5 17.0778 80.5 23.9583V68.0417C80.5 74.9221 74.9221 80.5 68.0417 80.5H23.9583C17.0778 80.5 11.5 74.9221 11.5 68.0417V23.9583ZM51.7136 36.4164L31.5189 56.4155C30.3907 57.533 30.3818 59.353 31.4991 60.4812C32.6164 61.6097 34.4367 61.6185 35.5649 60.5011L55.5833 40.6767V58.4579C55.5833 60.0461 56.8706 61.3329 58.4583 61.3329C60.0461 61.3329 61.3333 60.0461 61.3333 58.4579V33.5414C61.3333 31.9536 60.0461 30.6664 58.4583 30.6664H33.5417C31.9539 30.6664 30.6667 31.9536 30.6667 33.5414C30.6667 35.1292 31.9539 36.4164 33.5417 36.4164H51.7136Z" fill="#D1D28D"/>
</svg>
