<?xml version="1.0" encoding="UTF-8"?>
<svg id="Layer_2" data-name="Layer 2" xmlns="http://www.w3.org/2000/svg" xmlns:xlink="http://www.w3.org/1999/xlink" viewBox="0 0 392 394">
  <defs>
    <style>
      .cls-1 {
        stroke-width: 22px;
      }

      .cls-1, .cls-2, .cls-3, .cls-4 {
        fill: none;
      }

      .cls-1, .cls-2, .cls-4 {
        stroke: #000;
        stroke-miterlimit: 10;
      }

      .cls-2, .cls-4 {
        stroke-width: 15px;
      }

      .cls-5 {
        clip-path: url(#clippath-1);
      }

      .cls-4 {
        stroke-linecap: round;
      }

      .cls-6 {
        clip-path: url(#clippath);
      }
    </style>
    <clipPath id="clippath">
      <rect class="cls-3" x="50.84" y="114.49" width="89.82" height="156.67"/>
    </clipPath>
    <clipPath id="clippath-1">
      <rect class="cls-3" x="251.34" y="114.49" width="89.82" height="156.67"/>
    </clipPath>
  </defs>
  <g id="Mökki">
    <ellipse class="cls-1" cx="196" cy="197" rx="185" ry="186"/>
    <g>
      <g>
        <g class="cls-6">
          <path class="cls-2" d="M106.52,263.53l-45.39.13c-2.08,0-3.42-2.19-2.46-4.04l18.25-31.29c.96-1.85-.44-4.05-2.52-3.96l-9.57.26c-1.7.07-2.77-1.81-1.83-3.24l22.68-39.89c.8-1.21-.13-2.81-1.57-2.72l-8.31.27c-1.56.1-2.55-1.65-1.66-2.94l32.39-54.07c.06-.09.2-.09.27,0l27.67,40.9"/>
        </g>
        <g class="cls-5">
          <path class="cls-2" d="M285.48,263.53l45.39.13c2.08,0,3.42-2.19,2.46-4.04l-18.25-31.29c-.96-1.85.44-4.05,2.52-3.96l9.57.26c1.7.07,2.77-1.81,1.83-3.24l-22.68-39.89c-.8-1.21.13-2.81,1.57-2.72l8.31.27c1.56.1,2.55-1.65,1.66-2.94l-32.39-54.07c-.06-.09-.2-.09-.27,0l-27.67,40.9"/>
        </g>
      </g>
      <path class="cls-4" d="M105.78,296v-99.45c0-.1.04-.2.1-.27l89.82-98.56c.16-.17.43-.17.59,0l88.41,98.56c.07.07.1.17.1.27v99.45c0,.22-.18.4-.4.4H106.18c-.22,0-.4-.18-.4-.4Z"/>
      <rect class="cls-2" x="166.7" y="221.4" width="57.5" height="75" rx=".28" ry=".28"/>
    </g>
  </g>
</svg>