<?xml version="1.0" encoding="UTF-8"?>
<svg id="Layer_2" data-name="Layer 2" xmlns="http://www.w3.org/2000/svg" viewBox="0 0 20.16 15.87">
  <defs>
    <style>
      .cls-1 {
        fill: none;
        stroke: #000;
        stroke-linecap: round;
        stroke-miterlimit: 10;
        stroke-width: .73px;
      }
    </style>
  </defs>
  <g id="Cottage">
    <g id="cottage">
      <path class="cls-1" d="M16.47,7.49v7.76c0,.14-.11.26-.24.26H3.95c-.13,0-.24-.11-.24-.26v-7.8l2.5-2.78L10.05.38s.05-.02.07,0l3.82,4.28,2.52,2.82Z"/>
      <line class="cls-1" x1="17.16" y1="8.27" x2="16.47" y2="7.49"/>
      <line class="cls-1" x1="3.71" y1="7.45" x2="2.92" y2="8.33"/>
      <path class="cls-1" d="M12.12,9.76v5.74h-4.07v-5.74s.02-.05.05-.05h3.98s.05.02.05.05Z"/>
      <rect class="cls-1" x="9.24" y="4.37" width="1.74" height="2.32" rx=".85" ry=".85"/>
    </g>
    <path id="tree1" class="cls-1" d="M3.66,12.94l-3.25.02s-.05-.03-.03-.06l1.3-2.76s0-.06-.03-.06H.59s-.05-.03-.03-.06l1.81-3.49s0-.06-.03-.06h-.92s-.05-.03-.03-.06L3.65,2.14s.05-.03.06,0l1.95,3.14"/>
    <path id="tree2" class="cls-1" d="M16.47,12.96l3.29.02s.05-.03.03-.06l-1.3-2.76s0-.06.03-.06h1.05s.05-.03.03-.06l-1.81-3.49s0-.06.03-.06h.92s.05-.03.03-.06l-2.27-4.26s-.05-.03-.06,0l-1.95,3.14"/>
  </g>
</svg>