<?xml version="1.0" encoding="UTF-8"?>
<svg id="Cottage" xmlns="http://www.w3.org/2000/svg" viewBox="0 0 24 24">
  <defs>
    <style>
      .cls-1, .cls-2 {
        fill: none;
        stroke: #000;
        stroke-miterlimit: 10;
        stroke-width: .75px;
      }

      .cls-2 {
        stroke-linecap: round;
      }
    </style>
  </defs>
  <g id="cottage">
    <path class="cls-1" d="M18.3,11.56v7.66c0,.14-.11.25-.24.25H5.95c-.13,0-.24-.11-.24-.25v-7.7l2.46-2.74,3.8-4.23s.05-.02.07,0l3.77,4.23,2.49,2.79Z"/>
    <line class="cls-2" x1="18.99" y1="12.33" x2="18.3" y2="11.56"/>
    <line class="cls-2" x1="5.71" y1="11.52" x2="4.93" y2="12.39"/>
    <path class="cls-1" d="M14.02,13.95v5.52h-4.02v-5.52c0-.11.09-.2.2-.2h3.63c.11,0,.19.09.19.19Z"/>
    <rect class="cls-1" x="11.16" y="8.48" width="1.71" height="2.29" rx=".85" ry=".85"/>
  </g>
  <path id="tree1" class="cls-1" d="M5.66,16.94l-3.21.02c-.05,0-.05.02-.03-.06l1.28-2.73s0-.06-.03-.06h-1.04s-.05-.03-.03-.06l1.78-3.45c.03-.06.02-.06-.03-.06h-.77c-.11,0-.16-.06-.12-.17l2.18-4.1s.05-.03.06,0l1.92,3.1"/>
  <path id="tree2" class="cls-1" d="M18.3,16.96l3.25.02s.06,0,.03-.06l-1.28-2.73s0-.06.03-.06h1.04s.06.01.03-.06l-1.78-3.45s0-.06.03-.06h.9s.08.02.03-.06l-2.24-4.21s-.05-.03-.06,0l-1.92,3.1"/>
</svg>