<?xml version="1.0" encoding="UTF-8"?>
<svg id="Dining" xmlns="http://www.w3.org/2000/svg" viewBox="0 0 24 24">
  <defs>
    <style>
      .cls-1, .cls-2 {
        fill: none;
        stroke: #000;
        stroke-miterlimit: 10;
        stroke-width: .5px;
      }

      .cls-2 {
        stroke-linecap: round;
      }
    </style>
  </defs>
  <circle class="cls-1" cx="12.09" cy="12.46" r="3.89"/>
  <path class="cls-2" d="M8.07,7.67s2.16-1.76,4.48-1.63c2.7.15,4.28,2.06,4.28,2.06"/>
  <path class="cls-2" d="M7.24,16.34s2.12,2.51,4.91,2.39c3.32-.14,5.1-2.46,5.1-2.46"/>
  <path class="cls-2" d="M3.83,4.66v4.26c0,1.01.99,1.49,1.52,1.5s1.51-.61,1.51-1.36c0-1.1-.08-4.39-.08-4.39"/>
  <line class="cls-2" x1="5.48" y1="19.86" x2="5.42" y2="10.43"/>
  <line class="cls-2" x1="5.37" y1="4.66" x2="5.37" y2="7.97"/>
  <path class="cls-2" d="M20.16,18.98c0-.13,0-14.11,0-14.21.02-.73-1.89,1.17-1.89,2.85v4.06c0,.06.01.12.04.17l.3.68c.2.45.3.93.3,1.42v4.93c0,.64.35.97.65.97.27,0,.61-.3.61-.88Z"/>
</svg>