<?xml version="1.0" encoding="UTF-8"?>
<svg id="Layer_2" data-name="Layer 2" xmlns="http://www.w3.org/2000/svg" viewBox="0 0 17.04 15.97">
  <defs>
    <style>
      .cls-1, .cls-2 {
        fill: none;
        stroke: #000;
        stroke-miterlimit: 10;
        stroke-width: .71px;
      }

      .cls-2 {
        stroke-linecap: round;
      }
    </style>
  </defs>
  <g id="Dining">
    <circle class="cls-1" cx="8.61" cy="8.21" r="3.89"/>
    <path class="cls-2" d="M4.59,3.42s2.16-1.76,4.48-1.63c2.7.15,4.28,2.06,4.28,2.06"/>
    <path class="cls-2" d="M3.77,12.1s2.12,2.51,4.91,2.39c3.32-.14,5.1-2.46,5.1-2.46"/>
    <path class="cls-2" d="M.41.36s-.05,3.24-.05,4.33c0,1.01.99,1.49,1.52,1.5s1.51-.61,1.51-1.36c0-1.1-.08-4.39-.08-4.39"/>
    <line class="cls-2" x1="2" y1="15.62" x2="1.94" y2="6.18"/>
    <line class="cls-2" x1="1.89" y1=".42" x2="1.89" y2="3.72"/>
    <path class="cls-2" d="M16.69,14.73c0-.13,0-14.11,0-14.21.02-.73-1.89,1.17-1.89,2.85v4.06c0,.06.01.12.04.17l.3.68c.2.45.3.93.3,1.42v4.93c0,.64.35.97.65.97.27,0,.61-.3.61-.88Z"/>
  </g>
</svg>