<?xml version="1.0" encoding="UTF-8"?>
<svg id="Layer_2" data-name="Layer 2" xmlns="http://www.w3.org/2000/svg" viewBox="0 0 15.56 15.89">
  <defs>
    <style>
      .cls-1 {
        fill: none;
        stroke: #000;
        stroke-miterlimit: 10;
        stroke-width: .67px;
      }
    </style>
  </defs>
  <g id="Fireplace">
    <g>
      <path class="cls-1" d="M6.02,14.35s-1.17-.42-1.36-2.33c-.06-.65.41-1.92.82-2.43.45-.57.1,1.19.47.97.63-.38,1.22-1.89,1.3-2.62.04-.39.05-.74.02-1.58-.07-1.54,2.82,3.47,2.82,5.49,0,1.09-.65,2.3-2.11,2.51-.25.04-.8-.02-1-.18-.41-.34-.38-.98-.31-1.35.13-.7.63-1.07,1.14-1.52.12-.11.41-.78.42-.62.04.66.01,1.71.55,1.78.64.07,1.16-1.62,1.16-1.62"/>
      <path class="cls-1" d="M15.22,7.78v7.78H.34v-7.78C.34,3.67,3.67.34,7.78.34c2.06,0,3.92.83,5.26,2.18,1.35,1.35,2.18,3.21,2.18,5.26Z"/>
      <path class="cls-1" d="M12.2,8.15v7.41H3.29v-7.41c0-2.43,1.97-4.39,4.39-4.39h.13c2.43,0,4.39,1.97,4.39,4.39Z"/>
      <path class="cls-1" d="M10.73,14.98v.58h-6.24v-.58c0-.35.28-.63.63-.63h4.98c.35,0,.63.28.63.63Z"/>
    </g>
  </g>
</svg>