<?xml version="1.0" encoding="UTF-8"?>
<svg id="Layer_2" data-name="Layer 2" xmlns="http://www.w3.org/2000/svg" viewBox="0 0 14.26 15.87">
  <defs>
    <style>
      .cls-1 {
        stroke-linecap: round;
      }

      .cls-1, .cls-2 {
        fill: none;
        stroke: #000;
        stroke-miterlimit: 10;
        stroke-width: .59px;
      }
    </style>
  </defs>
  <g id="Sauna">
    <g>
      <path class="cls-2" d="M12.25,7.6l-.18,3.55-.17,3.22c-.03.68-.59,1.21-1.27,1.21H3.74c-.67,0-1.23-.52-1.27-1.19l-.22-3.19-.25-3.6h10.25Z"/>
      <rect class="cls-2" x="1.16" y="5.22" width="11.95" height="2.38" rx=".71" ry=".71"/>
      <path class="cls-2" d="M13.96,6.97h0c0,1.67-.73,3.16-1.9,4.18-.97.85-2.25,1.37-3.65,1.37h-2.58c-1.37,0-2.62-.5-3.59-1.32-1.2-1.02-1.95-2.53-1.95-4.22H.3c0-.08.06-.14.13-.14h.73v.05c0,.39.32.71.71.71h10.53c.39,0,.71-.32.71-.71v-.05h.72c.07,0,.13.06.13.13Z"/>
      <path class="cls-1" d="M5.01.3s-.24.43-.24.89.59.91.66,1.35c.1.56-.14,1.06-.14,1.06"/>
      <path class="cls-1" d="M7.2.3s-.24.43-.24.89.59.91.66,1.35c.1.56-.14,1.06-.14,1.06"/>
      <path class="cls-1" d="M9.39.3s-.24.43-.24.89.59.91.66,1.35c.1.56-.14,1.06-.14,1.06"/>
    </g>
  </g>
</svg>