<?xml version="1.0" encoding="UTF-8"?>
<svg id="Layer_2" data-name="Layer 2" xmlns="http://www.w3.org/2000/svg" viewBox="0 0 20.03 15.35">
  <defs>
    <style>
      .cls-1 {
        fill: none;
        stroke: #000;
        stroke-linecap: round;
        stroke-miterlimit: 10;
        stroke-width: .67px;
      }
    </style>
  </defs>
  <g id="Sun">
    <g>
      <path class="cls-1" d="M.33,10.76s.61.08.77.13c.65.22,1.56,1,2.38,1.04s2.4-1.11,3.25-1.17,2.3,1.1,3.18,1.13c.82.03,2.55-1.05,3.36-1.12.94-.09,2.36,1.11,3.3,1.11.8,0,1.83-.75,2.39-1,.17-.07.72-.15.72-.15"/>
      <path class="cls-1" d="M3.05,14.98c.5.1.97.03,1.5-.17.73-.33,1.47-.93,2.34-.87,1,.13,1.73.8,2.67,1,1.07.27,1.87-.47,2.8-.87.73-.33,1.53-.13,2.2.2.8.33,1.43.77,2.4.6"/>
      <path class="cls-1" d="M5.79,8.95c-.1-2.39,1.1-3.61,2.25-4.22,1.27-.68,2.8-.76,4.07-.09,1.1.58,2.23,1.81,2.33,4.38"/>
      <line class="cls-1" x1="1.84" y1="8.32" x2="3.99" y2="8.32"/>
      <line class="cls-1" x1="3.06" y1="4.3" x2="4.92" y2="5.38"/>
      <line class="cls-1" x1="6.11" y1="1.41" x2="7.2" y2="3.26"/>
      <line class="cls-1" x1="18.35" y1="8.32" x2="16.19" y2="8.32"/>
      <line class="cls-1" x1="17.12" y1="4.3" x2="15.26" y2="5.38"/>
      <line class="cls-1" x1="14.07" y1="1.41" x2="12.98" y2="3.26"/>
      <line class="cls-1" x1="10.11" y1=".33" x2="10.11" y2="2.49"/>
    </g>
  </g>
</svg>