<?xml version="1.0" encoding="UTF-8"?>
<svg id="Sun" xmlns="http://www.w3.org/2000/svg" viewBox="0 0 24 24">
  <defs>
    <style>
      .cls-1 {
        fill: none;
        stroke: #000;
        stroke-linecap: round;
        stroke-miterlimit: 10;
        stroke-width: .75px;
      }
    </style>
  </defs>
  <path class="cls-1" d="M2.32,15.08s.5.02.77.13c.59.24,1.56,1,2.38,1.04s2.4-1.11,3.25-1.17,2.3,1.1,3.18,1.13c.82.03,2.55-1.05,3.36-1.12.94-.09,2.36,1.11,3.3,1.11.8,0,1.82-.78,2.39-1,.38-.15.72-.15.72-.15"/>
  <path class="cls-1" d="M5.03,19.3c.5.1.97.03,1.5-.17.73-.33,1.47-.93,2.34-.87,1,.13,1.73.8,2.67,1,1.07.27,1.87-.47,2.8-.87.73-.33,1.53-.13,2.2.2.8.33,1.43.77,2.4.6"/>
  <path class="cls-1" d="M7.77,13.27c-.1-2.39,1.1-3.61,2.25-4.22,1.27-.68,2.8-.76,4.07-.09,1.1.58,2.23,1.81,2.33,4.38"/>
  <line class="cls-1" x1="3.82" y1="12.65" x2="5.97" y2="12.65"/>
  <line class="cls-1" x1="5.05" y1="8.62" x2="6.9" y2="9.7"/>
  <line class="cls-1" x1="8.1" y1="5.73" x2="9.19" y2="7.59"/>
  <line class="cls-1" x1="20.33" y1="12.65" x2="18.18" y2="12.65"/>
  <line class="cls-1" x1="19.11" y1="8.62" x2="17.25" y2="9.7"/>
  <line class="cls-1" x1="16.05" y1="5.73" x2="14.97" y2="7.59"/>
  <line class="cls-1" x1="12.09" y1="4.66" x2="12.09" y2="6.81"/>
</svg>