<svg width="200" height="200" viewBox="0 0 200 200" fill="none" xmlns="http://www.w3.org/2000/svg">
<path fill-rule="evenodd" clip-rule="evenodd" d="M99.9999 8.3335C49.3749 8.3335 8.33325 49.3752 8.33325 100C8.33325 150.625 49.3749 191.667 99.9999 191.667C150.625 191.667 191.667 150.625 191.667 100C191.667 49.3752 150.625 8.3335 99.9999 8.3335ZM130.892 80.8918C132.41 79.3201 133.25 77.2151 133.231 75.0302C133.212 72.8452 132.335 70.7551 130.79 69.21C129.245 67.6649 127.155 66.7885 124.97 66.7695C122.785 66.7506 120.68 67.5905 119.108 69.1085L99.9999 88.2168L80.8916 69.1085C80.1229 68.3126 79.2033 67.6777 78.1866 67.241C77.1699 66.8042 76.0764 66.5744 74.9699 66.5647C73.8634 66.5551 72.7661 66.766 71.742 67.185C70.7178 67.604 69.7874 68.2228 69.005 69.0052C68.2225 69.7876 67.6037 70.7181 67.1847 71.7422C66.7657 72.7663 66.5549 73.8637 66.5645 74.9702C66.5741 76.0767 66.804 77.1702 67.2407 78.1869C67.6775 79.2036 68.3123 80.1231 69.1083 80.8918L88.2166 100L69.1083 119.108C68.3123 119.877 67.6775 120.797 67.2407 121.813C66.804 122.83 66.5741 123.924 66.5645 125.03C66.5549 126.137 66.7657 127.234 67.1847 128.258C67.6037 129.282 68.2225 130.213 69.005 130.995C69.7874 131.778 70.7178 132.396 71.742 132.815C72.7661 133.234 73.8634 133.445 74.9699 133.436C76.0764 133.426 77.1699 133.196 78.1866 132.759C79.2033 132.323 80.1229 131.688 80.8916 130.892L99.9999 111.783L119.108 130.892C120.68 132.41 122.785 133.25 124.97 133.231C127.155 133.212 129.245 132.335 130.79 130.79C132.335 129.245 133.212 127.155 133.231 124.97C133.25 122.785 132.41 120.68 130.892 119.108L111.783 100L130.892 80.8918Z" fill="#FF7B7B"/>
</svg>
